<svg xmlns="http://www.w3.org/2000/svg" viewBox="0 0 128 128" width="128" height="128">
<g transform="translate(100 52) rotate(30) scale(0.5)">
  <defs><linearGradient id="la" x1="0" y1="-1" x2="0" y2="1"><stop offset="0" stop-color="#ffb347"/><stop offset="1" stop-color="#e8571b"/></linearGradient></defs>
  <path d="M0,-50 L8,-30 L20,-36 L16,-12 L36,-20 L30,-6 L44,0 L22,12 L26,22 L6,18 L3,38 L-3,38 L-6,18 L-26,22 L-22,12 L-44,0 L-30,-6 L-36,-20 L-16,-12 L-20,-36 L-8,-30 Z" fill="url(#la)" stroke="#4a1e06" stroke-width="8.00" stroke-linejoin="round"/>
  <path d="M0,36 L0,-34 M0,4 L28,-10 M0,4 L-28,-10 M0,18 L18,16 M0,18 L-18,16" stroke="#4a1e06" stroke-opacity="0.45" stroke-width="5.00" fill="none" stroke-linecap="round"/>
</g>
<defs>
  <linearGradient id="cup" x1="0" y1="0" x2="1" y2="0"><stop offset="0" stop-color="#fffaf0"/><stop offset="1" stop-color="#e9d8bf"/></linearGradient>
  <linearGradient id="sleeve" x1="0" y1="0" x2="0" y2="1"><stop offset="0" stop-color="#c27a3a"/><stop offset="1" stop-color="#8a4a1c"/></linearGradient>
  <linearGradient id="cream" x1="0" y1="0" x2="0" y2="1"><stop offset="0" stop-color="#ffffff"/><stop offset="1" stop-color="#f3e6d2"/></linearGradient>
</defs>
<path d="M34,52 L94,52 L86,120 L42,120 Z" fill="url(#cup)" stroke="#4a1e06" stroke-width="4" stroke-linejoin="round"/>
<path d="M37,72 L91,72 L87,102 L41,102 Z" fill="url(#sleeve)" stroke="#4a1e06" stroke-width="4" stroke-linejoin="round"/>
<text x="64" y="97" text-anchor="middle" font-family="Arial Black, Arial, sans-serif" font-weight="900" font-size="26" fill="#ffd25e" stroke="#4a1e06" stroke-width="2">$</text>
<rect x="28" y="44" width="72" height="12" rx="5" fill="#a85a22" stroke="#4a1e06" stroke-width="4"/>
<path d="M36,44 C30,34 40,26 48,30 C48,18 64,14 70,24 C78,14 96,22 90,34 C98,36 96,44 92,44 Z" fill="url(#cream)" stroke="#4a1e06" stroke-width="4" stroke-linejoin="round"/>
<path d="M54,30 C60,26 66,30 70,26" stroke="#d9c2a0" stroke-width="3" fill="none" stroke-linecap="round"/>
<circle cx="72" cy="20" r="5" fill="#d8352a" stroke="#4a1e06" stroke-width="3"/>
</svg>
